<?xml version="1.0" encoding="UTF-8" standalone="no"?>
<!-- Created with Inkscape (http://www.inkscape.org/) -->

<svg
   width="22"
   height="22"
   id="svg3869"
   version="1.1"
   viewBox="0 0 22 22"
   xmlns="http://www.w3.org/2000/svg"
   xmlns:svg="http://www.w3.org/2000/svg"
   xmlns:rdf="http://www.w3.org/1999/02/22-rdf-syntax-ns#"
   xmlns:cc="http://creativecommons.org/ns#"
   xmlns:dc="http://purl.org/dc/elements/1.1/">
  <defs
     id="defs3871">
    <style
       type="text/css"
       id="current-color-scheme">
      .ColorScheme-Text {
        color:#31363b;
      }
      .ColorScheme-Background {
        color:#eff0f1;
      }
      .ColorScheme-Highlight {
        color:#3daee9;
      }
      .ColorScheme-ViewText {
        color:#31363b;
      }
      .ColorScheme-ViewBackground {
        color:#fcfcfc;
      }
      .ColorScheme-ViewHover {
        color:#93cee9;
      }
      .ColorScheme-ViewFocus{
        color:#3daee9;
      }
      .ColorScheme-ButtonText {
        color:#31363b;
      }
      .ColorScheme-ButtonBackground {
        color:#eff0f1;
      }
      .ColorScheme-ButtonHover {
        color:#93cee9;
      }
      .ColorScheme-ButtonFocus{
        color:#3daee9;
      }
      </style>
  </defs>
  <metadata
     id="metadata3874">
    <rdf:RDF>
      <cc:Work
         rdf:about="">
        <dc:format>image/svg+xml</dc:format>
        <dc:type
           rdf:resource="http://purl.org/dc/dcmitype/StillImage" />
        <dc:title />
      </cc:Work>
    </rdf:RDF>
  </metadata>
  <g
     id="layer1"
     transform="translate(-326,-534.36218)">
    <g
       id="kget">
      <rect
         y="534.36218"
         x="326"
         height="22"
         width="22"
         id="rect4148"
         style="opacity:1;fill:none;fill-opacity:1;stroke:none;stroke-width:0.1;stroke-linecap:square;stroke-linejoin:miter;stroke-miterlimit:4;stroke-dasharray:none;stroke-dashoffset:0;stroke-opacity:1" />
      <path
         id="rect4170"
         transform="translate(326,534.36218)"
         d="m 9,3 0,1 0,4 0,1 0,2 1,0 0,-7 2,0 0,7 1,0 0,-2 0,-1 0,-4 0,-1 -4,0 z M 6.7578125,10.34375 6.0507812,11.050781 11,16 15.949219,11.050781 15.242188,10.34375 11,14.585938 6.7578125,10.34375 Z M 5,17 l 0,2 1,0 10,0 1,0 0,-2 -1,0 0,1 -10,0 0,-1 -1,0 z"
         style="opacity:1;fill:currentColor;fill-opacity:1;stroke:none;stroke-width:2.79999995;stroke-miterlimit:4;stroke-dasharray:none;stroke-opacity:0.55026455"
         class="ColorScheme-Text" />
    </g>
  </g>
</svg>
