<?xml version="1.0" encoding="UTF-8" standalone="no"?>
<!-- Created with Inkscape (http://www.inkscape.org/) -->

<svg
   id="svg4153"
   version="1.1"
   width="32.000004"
   height="32"
   viewBox="0 0 32.000004 32"
   xmlns="http://www.w3.org/2000/svg"
   xmlns:svg="http://www.w3.org/2000/svg"
   xmlns:rdf="http://www.w3.org/1999/02/22-rdf-syntax-ns#"
   xmlns:cc="http://creativecommons.org/ns#"
   xmlns:dc="http://purl.org/dc/elements/1.1/">
  <metadata
     id="metadata4159">
    <rdf:RDF>
      <cc:Work
         rdf:about="">
        <dc:format>image/svg+xml</dc:format>
        <dc:type
           rdf:resource="http://purl.org/dc/dcmitype/StillImage" />
        <dc:title />
      </cc:Work>
    </rdf:RDF>
  </metadata>
  <defs
     id="defs4157">
    <style
       type="text/css"
       id="current-color-scheme">
      .ColorScheme-Text {
        color:#31363b;
      }
      .ColorScheme-Background {
        color:#eff0f1;
      }
      .ColorScheme-Highlight {
        color:#3daee9;
      }
      .ColorScheme-ViewText {
        color:#31363b;
      }
      .ColorScheme-ViewBackground {
        color:#fcfcfc;
      }
      .ColorScheme-ViewHover {
        color:#93cee9;
      }
      .ColorScheme-ViewFocus{
        color:#3daee9;
      }
      .ColorScheme-ButtonText {
        color:#31363b;
      }
      .ColorScheme-ButtonBackground {
        color:#eff0f1;
      }
      .ColorScheme-ButtonHover {
        color:#93cee9;
      }
      .ColorScheme-ButtonFocus{
        color:#3daee9;
      }
      </style>
  </defs>
  <g
     id="22-22-klipper"
     transform="translate(49,4.999999)">
    <path
       style="opacity:1;fill:currentColor;fill-opacity:1;stroke:none"
       d="M 7,3 7,5 5,5 4,5 4,19 5,19 18,19 18,18 18,5 17,5 15,5 15,3 7,3 Z M 5,6 6,6 6,8 16,8 16,6 17,6 17,18 5,18 5,6 Z m 2,3 0,1 8,0 0,-1 -8,0 z m 0,3 0,1 6,0 0,-1 -6,0 z m 0,3 0,1 3,0 0,-1 -3,0 z"
       id="path4146"
       class="ColorScheme-Text" />
    <rect
       style="opacity:1;fill:none;fill-opacity:1;stroke:none;stroke-width:0.1;stroke-linecap:square;stroke-linejoin:miter;stroke-miterlimit:4;stroke-dasharray:none;stroke-dashoffset:0;stroke-opacity:1"
       id="rect4148"
       width="22"
       height="22"
       x="0"
       y="0" />
  </g>
  <g
     id="klipper">
    <path
       id="rect4202"
       d="m 13.000002,4 0,2 -2,0 0,1 -5.0000001,0 0,21 20.0000001,0 0,-21 -5,0 0,-1 -2,0 0,-2 z m -6.0000001,4 4.0000001,0 0,1.3 10,0 0,-1.3 4,0 0,19 -18.0000001,0 z m 3.0000001,3 0,1 12,0 0,-1 z m 0,3 0,1 12,0 0,-1 z m 0,4 0,1 5,0 0,-1 z m 0,3 0,1 5,0 0,-1 z m 0,3 0,1 11,0 0,-1 z"
       style="opacity:1;fill:currentColor;fill-opacity:1;stroke:none"
       class="ColorScheme-Text" />
    <rect
       y="-1e-06"
       x="-2.8953547e-08"
       height="32"
       width="32.000004"
       id="rect4230"
       style="opacity:1;fill:none;fill-opacity:1;stroke:none" />
  </g>
</svg>
