<?xml version="1.0" encoding="UTF-8" standalone="no"?>
<!-- Created with Inkscape (http://www.inkscape.org/) -->

<svg
   width="22"
   height="22"
   id="svg3869"
   version="1.1"
   viewBox="0 0 22 22"
   xmlns="http://www.w3.org/2000/svg"
   xmlns:svg="http://www.w3.org/2000/svg"
   xmlns:rdf="http://www.w3.org/1999/02/22-rdf-syntax-ns#"
   xmlns:cc="http://creativecommons.org/ns#"
   xmlns:dc="http://purl.org/dc/elements/1.1/">
  <defs
     id="defs3871">
    <style
       type="text/css"
       id="current-color-scheme">
      .ColorScheme-Text {
        color:#31363b;
      }
      .ColorScheme-Background {
        color:#eff0f1;
      }
      .ColorScheme-Highlight {
        color:#3daee9;
      }
      .ColorScheme-ViewText {
        color:#31363b;
      }
      .ColorScheme-ViewBackground {
        color:#fcfcfc;
      }
      .ColorScheme-ViewHover {
        color:#93cee9;
      }
      .ColorScheme-ViewFocus{
        color:#3daee9;
      }
      .ColorScheme-ButtonText {
        color:#31363b;
      }
      .ColorScheme-ButtonBackground {
        color:#eff0f1;
      }
      .ColorScheme-ButtonHover {
        color:#93cee9;
      }
      .ColorScheme-ButtonFocus{
        color:#3daee9;
      }
      </style>
  </defs>
  <metadata
     id="metadata3874">
    <rdf:RDF>
      <cc:Work
         rdf:about="">
        <dc:format>image/svg+xml</dc:format>
        <dc:type
           rdf:resource="http://purl.org/dc/dcmitype/StillImage" />
        <dc:title />
      </cc:Work>
    </rdf:RDF>
  </metadata>
  <g
     id="layer1"
     transform="translate(-326,-534.3622)">
    <g
       id="konversation">
      <path
         id="rect3353"
         d="m 344,538.3622 -12,3.41797 0,1.04297 0,4.53906 0,0.58203 1,0.28516 0,2.13281 0,0.30078 6,1.69922 0,-1 0,-1.42383 5,1.42383 0,-1.04297 0,-10.91406 z m -1,1.32813 0,10.34375 -10,-2.84766 0,-4.64844 z m -12,2.375 -1,0.28515 0,0.0117 0,1 0,3 0,1 0,0.0117 1,0.28516 0,-0.29688 0,-0.74609 0,-3.50782 0,-0.74609 z m 3,6.44921 4,1.13868 0,1.42578 -4,-1.13282 z"
         style="opacity:1;fill:currentColor;fill-opacity:1;stroke:none;stroke-width:0.1;stroke-linecap:round;stroke-linejoin:miter;stroke-miterlimit:4;stroke-dasharray:none;stroke-opacity:0.29943501"
         class="ColorScheme-Text" />
      <rect
         y="534.36218"
         x="326"
         height="22"
         width="22"
         id="rect4170"
         style="opacity:1;fill:none;fill-opacity:1;stroke:none" />
    </g>
  </g>
</svg>
