<?xml version="1.0" encoding="UTF-8" standalone="no"?>
<svg
   viewBox="0 0 22 22"
   version="1.1"
   id="svg66"
   xmlns="http://www.w3.org/2000/svg"
   xmlns:svg="http://www.w3.org/2000/svg">
  <defs
     id="defs66" />
  <style
     type="text/css"
     id="current-color-scheme">
        .ColorScheme-Text {
            color:#232629;
        }
    </style>
  <g
     id="media-playback-playing">
    <path
       d="m0 0h22v22h-22z"
       fill="none"
       id="path1" />
    <g
       class="ColorScheme-Text"
       fill="currentColor"
       fill-rule="evenodd"
       id="g3">
      <path
         d="m11 3a8 8 0 0 0 -8 8 8 8 0 0 0 8 8 8 8 0 0 0 8-8 8 8 0 0 0 -8-8zm0 1a7 7 0 0 1 7 7 7 7 0 0 1 -7 7 7 7 0 0 1 -7-7 7 7 0 0 1 7-7z"
         id="path2" />
      <path
         d="m9 14 6-3-6-3z"
         id="path3" />
    </g>
  </g>
  <g
     id="media-playback-stopped"
     transform="translate(24)">
    <path
       d="m24 0h22v22h-22z"
       fill="none"
       id="path4" />
    <g
       class="ColorScheme-Text"
       fill="currentColor"
       fill-rule="evenodd"
       id="g6">
      <path
         d="m35 3a8 8 0 0 0 -8 8 8 8 0 0 0 8 8 8 8 0 0 0 8-8 8 8 0 0 0 -8-8zm0 1a7 7 0 0 1 7 7 7 7 0 0 1 -7 7 7 7 0 0 1 -7-7 7 7 0 0 1 7-7z"
         id="path5" />
      <path
         d="m32 8h6v6h-6z"
         id="path6" />
    </g>
  </g>
  <g
     id="media-playback-paused"
     transform="translate(48)">
    <path
       d="m-24 0h22v22h-22z"
       fill="none"
       id="path7" />
    <g
       class="ColorScheme-Text"
       fill="currentColor"
       fill-rule="evenodd"
       id="g10">
      <path
         d="m-16 8h2v6h-2z"
         id="path8" />
      <path
         d="m-12 8h2v6h-2z"
         id="path9" />
      <path
         d="m-13 3a8 8 0 0 0 -8 8 8 8 0 0 0 8 8 8 8 0 0 0 8-8 8 8 0 0 0 -8-8zm0 1a7 7 0 0 1 7 7 7 7 0 0 1 -7 7 7 7 0 0 1 -7-7 7 7 0 0 1 7-7z"
         id="path10" />
    </g>
  </g>
  <g
     id="16-16-media-playback-pause"
     transform="translate(223 -26)">
    <path
       d="m-117 48h16v16h-16z"
       fill="none"
       id="path11" />
    <path
       d="m-115 50v12h4v-12zm8 0v12h4v-12z"
       class="ColorScheme-Text"
       fill="currentColor"
       id="path12" />
  </g>
  <g
     id="22-22-media-playback-pause"
     transform="translate(207 -43)">
    <path
       d="m-101 43h22v22h-22z"
       fill="none"
       id="path13" />
    <path
       d="m-98 46v16h6v-16zm10 0v16h6v-16z"
       class="ColorScheme-Text"
       fill="currentColor"
       id="path14" />
  </g>
  <g
     id="32-32-media-playback-pause"
     transform="translate(178 -66)">
    <path
       d="m-72 34h32v32h-32z"
       fill="none"
       id="path15" />
    <path
       d="m-68 38v24h9v-24zm15 0v24h9v-24z"
       class="ColorScheme-Text"
       fill="currentColor"
       id="path16" />
  </g>
  <g
     id="32-32-media-playback-start"
     transform="translate(24 -68)">
    <path
       d="m48 36h32v32h-32z"
       fill="none"
       id="path17" />
    <path
       d="m52 40v24l24-12z"
       class="ColorScheme-Text"
       fill="currentColor"
       id="path18" />
  </g>
  <g
     id="22-22-media-playback-start"
     transform="translate(48 -46)">
    <path
       d="m24 46h22v22h-22z"
       fill="none"
       id="path19" />
    <path
       d="m27 49v16l16-8z"
       class="ColorScheme-Text"
       fill="currentColor"
       id="path20" />
  </g>
  <g
     id="16-16-media-playback-start"
     transform="translate(66 -30)">
    <path
       d="m6 52h16v16h-16z"
       fill="none"
       id="path21" />
    <path
       d="m8 54v12l12-6z"
       class="ColorScheme-Text"
       fill="currentColor"
       id="path22" />
  </g>
  <g
     id="16-16-media-playback-stop"
     transform="translate(254 -86)">
    <path
       d="m-114 108h16v16h-16z"
       fill="none"
       id="path23" />
    <path
       d="m-112 110h12v12h-12z"
       class="ColorScheme-Text"
       fill="currentColor"
       fill-rule="evenodd"
       id="path24" />
  </g>
  <g
     id="22-22-media-playback-stop"
     transform="translate(236 -102)">
    <path
       d="m-96 102h22v22h-22z"
       fill="none"
       id="path25" />
    <path
       d="m-93 105h16v16h-16z"
       class="ColorScheme-Text"
       fill="currentColor"
       fill-rule="evenodd"
       id="path26" />
  </g>
  <g
     id="32-32-media-playback-stop"
     transform="translate(212 -124)">
    <path
       d="m-72 92h32v32h-32z"
       fill="none"
       id="path27" />
    <path
       d="m-68 96h24v24h-24z"
       class="ColorScheme-Text"
       fill="currentColor"
       fill-rule="evenodd"
       id="path28" />
  </g>
  <g
     id="32-32-media-record"
     transform="translate(184 -160)">
    <path
       d="m-10 128h32v32h-32z"
       fill="none"
       id="path29" />
    <path
       d="m18 144a12 12 0 0 1 -12 12 12 12 0 0 1 -12-12 12 12 0 0 1 12-12 12 12 0 0 1 12 12z"
       fill="#da4453"
       id="path30" />
  </g>
  <g
     id="16-16-media-record"
     transform="translate(226 -122)">
    <path
       d="m-52 144h16v16h-16z"
       fill="none"
       id="path31" />
    <path
       d="m-38 152a6 6 0 0 1 -6 6 6 6 0 0 1 -6-6 6 6 0 0 1 6-6 6 6 0 0 1 6 6z"
       fill="#da4453"
       id="path32" />
  </g>
  <g
     id="22-22-media-record"
     transform="translate(208 -138)">
    <path
       d="m-34 138h22v22h-22z"
       fill="none"
       id="path33" />
    <path
       d="m-15 149a8 8 0 0 1 -8 8 8 8 0 0 1 -8-8 8 8 0 0 1 8-8 8 8 0 0 1 8 8z"
       fill="#da4453"
       id="path34" />
  </g>
  <g
     id="16-16-media-eject"
     transform="translate(286 -224)">
    <path
       d="m58 246h16v16h-16z"
       fill="none"
       id="path35" />
    <path
       d="m66 248-6 8h12zm-6 10v2h12v-2z"
       class="ColorScheme-Text"
       fill="currentColor"
       id="path36" />
  </g>
  <g
     id="22-22-media-eject"
     transform="translate(268 -240)">
    <path
       d="m76 240h22v22h-22z"
       fill="none"
       id="path37" />
    <path
       d="m87 243-8 11h16z"
       class="ColorScheme-Text"
       fill="currentColor"
       id="path38" />
    <path
       d="m79 256v3h16v-3z"
       class="ColorScheme-Text"
       fill="currentColor"
       id="path39" />
  </g>
  <g
     id="32-32-media-eject"
     transform="translate(244 -262)">
    <path
       d="m100 230h32v32h-32z"
       fill="none"
       id="path40" />
    <path
       d="m116 234-12 17h24z"
       class="ColorScheme-Text"
       fill="currentColor"
       id="path41" />
    <path
       d="m104 254v4h24v-4z"
       class="ColorScheme-Text"
       fill="currentColor"
       id="path42" />
  </g>
  <g
     id="16-16-media-skip-forward"
     transform="translate(60 -104)">
    <path
       d="m250 126h16v16h-16z"
       fill="none"
       id="path43" />
    <path
       d="m257 128v12l7-6zm7 6v6h2v-12h-2zm-14-6v12l7-6z"
       class="ColorScheme-Text"
       fill="currentColor"
       id="path44" />
  </g>
  <g
     id="22-22-media-skip-forward"
     transform="translate(310)">
    <path
       d="m0 0h22v22h-22z"
       fill="none"
       id="path45" />
    <path
       d="m0 3v16l10-8zm10 8v8l10-8-10-8zm10 0v8h2v-16h-2z"
       class="ColorScheme-Text"
       fill="currentColor"
       id="path46" />
  </g>
  <g
     id="32-32-media-skip-forward"
     transform="translate(18 -142)">
    <path
       d="m292 110h32v32h-32z"
       fill="none"
       id="path47" />
    <path
       d="m324 114v24h-4v-24zm-18 12-14 12v-24zm14 0-14 12v-24z"
       class="ColorScheme-Text"
       fill="currentColor"
       id="path48" />
  </g>
  <g
     id="16-16-media-skip-backward"
     transform="translate(26 -40)">
    <path
       d="m250 62h16v16h-16z"
       fill="none"
       id="path49" />
    <path
       d="m259 64v12l-7-6zm-7 6v6h-2v-12h2zm14-6v12l-7-6z"
       class="ColorScheme-Text"
       fill="currentColor"
       id="path50" />
  </g>
  <g
     id="22-22-media-skip-backward"
     transform="translate(276 -1)">
    <path
       d="m0 1h22v22h-22z"
       fill="none"
       id="path51" />
    <path
       d="m0 4v16h2v-16zm2 8 10 8v-16zm10 0 10 8v-16z"
       class="ColorScheme-Text"
       fill="currentColor"
       id="path52" />
  </g>
  <g
     id="32-32-media-skip-backward"
     transform="translate(-16 -78)">
    <path
       d="m292 46h32v32h-32z"
       fill="none"
       id="path53" />
    <path
       d="m292 50v24h4v-24zm18 12 14 12v-24zm-14 0 14 12v-24z"
       class="ColorScheme-Text"
       fill="currentColor"
       id="path54" />
  </g>
  <g
     id="16-16-media-seek-forward"
     transform="translate(448 -168)">
    <path
       d="m-206 190h16v16h-16z"
       fill="none"
       id="path55" />
    <path
       d="m-198 192v12l7-6zm-7 0v12l7-6z"
       class="ColorScheme-Text"
       fill="currentColor"
       id="path56" />
  </g>
  <g
     id="22-22-media-seek-forward"
     transform="translate(430 -184)">
    <path
       d="m-188 184h22v22h-22z"
       fill="none"
       id="path57" />
    <g
       class="ColorScheme-Text"
       fill="currentColor"
       transform="translate(-188 184)"
       id="g58">
      <path
         d="m1 3v16l10-8zm10 8v8l10-8-10-8z"
         id="path58" />
    </g>
  </g>
  <g
     id="32-32-media-seek-forward"
     transform="translate(406 -206)">
    <path
       d="m-164 174h32v32h-32z"
       fill="none"
       id="path59" />
    <path
       d="m-148 190-14 12v-24zm14 0-14 12v-24z"
       class="ColorScheme-Text"
       fill="currentColor"
       id="path60" />
  </g>
  <g
     id="16-16-media-seek-backward"
     transform="translate(414 -232)">
    <path
       d="m-206 254h16v16h-16z"
       fill="none"
       id="path61" />
    <path
       d="m-198 256v12l-7-6zm7 0v12l-7-6z"
       class="ColorScheme-Text"
       fill="currentColor"
       id="path62" />
  </g>
  <g
     id="22-22-media-seek-backward"
     transform="translate(396 -248)">
    <path
       d="m-188 248h22v22h-22z"
       fill="none"
       id="path63" />
    <g
       class="ColorScheme-Text"
       fill="currentColor"
       transform="translate(-188 248)"
       id="g64">
      <path
         d="m11 3-10 8 10 8v-8zm0 8 10 8v-16z"
         id="path64" />
    </g>
  </g>
  <g
     id="32-32-media-seek-backward"
     transform="translate(372 -270)">
    <path
       d="m-164 238h32v32h-32z"
       fill="none"
       id="path65" />
    <path
       d="m-148 254 14 12v-24zm-14 0 14 12v-24z"
       class="ColorScheme-Text"
       fill="currentColor"
       id="path66" />
  </g>
</svg>
