<?xml version="1.0" encoding="UTF-8" standalone="no"?>
<svg
   viewBox="0 0 22 22"
   id="svg"
   version="1.1"
   width="100%"
   height="100%"
   xmlns="http://www.w3.org/2000/svg"
   xmlns:svg="http://www.w3.org/2000/svg"
   xmlns:rdf="http://www.w3.org/1999/02/22-rdf-syntax-ns#"
   xmlns:cc="http://creativecommons.org/ns#"
   xmlns:dc="http://purl.org/dc/elements/1.1/">
  <defs
     id="defs81">
    <style
       id="current-color-scheme"
       type="text/css">
      .ColorScheme-Text {
        color:#7B7C7E;
      }
      .ColorScheme-Background{
        color:#EFF0F1;
      }
      .ColorScheme-Highlight{
        color:#3DAEE6;
      }
      .ColorScheme-ViewText {
        color:#7B7C7E;
      }
      .ColorScheme-ViewBackground{
        color:#FCFCFC;
      }
      .ColorScheme-ViewHover {
        color:#3DAEE6;
      }
      .ColorScheme-ViewFocus{
        color:#1E92FF;
      }
      .ColorScheme-ButtonText {
        color:#7B7C7E;
      }
      .ColorScheme-ButtonBackground{
        color:#EFF0F1;
      }
      .ColorScheme-ButtonHover {
        color:#3DAEE6;
      }
      .ColorScheme-ButtonFocus{
        color:#1E92FF;
      }
</style>
    <style
       type="text/css"
       id="style1">
      .ColorScheme-Text {
        color:#31363b;
      }
      .ColorScheme-Background {
        color:#eff0f1;
      }
      .ColorScheme-Highlight {
        color:#3daee9;
      }
      .ColorScheme-ViewText {
        color:#31363b;
      }
      .ColorScheme-ViewBackground {
        color:#fcfcfc;
      }
      .ColorScheme-ViewHover {
        color:#93cee9;
      }
      .ColorScheme-ViewFocus{
        color:#3daee9;
      }
      .ColorScheme-ButtonText {
        color:#31363b;
      }
      .ColorScheme-ButtonBackground {
        color:#eff0f1;
      }
      .ColorScheme-ButtonHover {
        color:#93cee9;
      }
      .ColorScheme-ButtonFocus{
        color:#3daee9;
      }
      </style>
  </defs>
  <metadata
     id="metadata34">
    <rdf:RDF>
      <cc:Work
         rdf:about="">
        <dc:format>image/svg+xml</dc:format>
        <dc:type
           rdf:resource="http://purl.org/dc/dcmitype/StillImage" />
        <dc:title />
      </cc:Work>
    </rdf:RDF>
  </metadata>
  <g
     id="22-22-printer"
     transform="translate(0,-2)">
    <rect
       y="2"
       x="0"
       height="22"
       width="22"
       id="rect3009"
       style="fill:currentColor;fill-opacity:0;stroke:none"
       class="ColorScheme-Background" />
    <path
       id="rect3007"
       transform="translate(0,2)"
       d="m 6,3 0,1 0,3 -2,0 -1,0 0,1 0,6 0,1 2,0 0,1 1,0 0,2 0,1 1,0 8,0 1,0 0,-3 1,0 0,-1 2,0 0,-1 0,-7 -1,0 -2,0 0,-4 -1,0 -8,0 -1,0 z m 1,1 8,0 0,4 -8,0 0,-4 z m -3,4 1,0 0,1 12,0 0,-1 1,0 0,6 -1,0 0,-2 -1,0 -11,0 0,1 0,1 -1,0 0,-6 z m 10,2 0,1 3,0 0,-1 -3,0 z m -7,3 8,0 0,5 -8,0 0,-5 z m 1,1 0,1 6,0 0,-1 -6,0 z m 0,2 0,1 6,0 0,-1 -6,0 z"
       style="fill:currentColor;fill-opacity:1;stroke:none"
       class="ColorScheme-Text" />
  </g>
  <g
     id="printer">
    <path
       id="rect4172"
       d="m -23,-6 0,1 0,5 -4,0 -0.484375,0 L -28,0 l 0,11 0,1 1,0 2,0 0,1 2,0 0,5 1,0 6,0 6,0 1,0 0,-5 2,0 0,-1 2,0 1,0 0,-1 L -4,0 -4.515625,0 -5,0 l -4,0 0,-5 0,-1 -7,0 -7,0 z m 1,1 6,0 6,0 0,5 0,1 -6,0 -6,0 0,-1 0,-5 z m -5,6 2,0 0,1 9,0 9,0 0,-1 2,0 0,10 -2,0 0,-3 -3,0 -6,0 -6,0 -3,0 0,3 -2,0 0,-10 z m 17,3 0,2 4,0 0,-2 -4,0 z m -12,5 6,0 6,0 0,2 0,1 0,5 -6,0 -6,0 0,-5 0,-1 0,-2 z m 1,2 0,1 5,0 5,0 0,-1 -5,0 -5,0 z m 0,3 0,1 5,0 5,0 0,-1 -5,0 -5,0 z"
       style="opacity:1;fill:currentColor;fill-opacity:1;stroke:none"
       class="ColorScheme-Text" />
    <rect
       y="-10"
       x="-32"
       height="32"
       width="32"
       id="rect4208"
       style="opacity:1;fill:none;fill-opacity:1;stroke:none" />
  </g>
</svg>
